<?xml version="1.0" standalone="no"?>
<!DOCTYPE svg PUBLIC "-//W3C//DTD SVG 20010904//EN"
 "http://www.w3.org/TR/2001/REC-SVG-20010904/DTD/svg10.dtd">
<svg version="1.0" xmlns="http://www.w3.org/2000/svg"
 width="274.000000pt" height="274.000000pt" viewBox="0 0 274.000000 274.000000"
 preserveAspectRatio="xMidYMid meet">
<metadata>
Created by potrace 1.11, written by Peter Selinger 2001-2013
</metadata>
<g transform="translate(0.000000,274.000000) scale(0.100000,-0.100000)"
fill="#000000" stroke="none">
<path d="M1340 2680 c-240 -30 -424 -79 -580 -156 -102 -50 -125 -67 -200
-143 -63 -64 -94 -105 -122 -161 -61 -125 -71 -180 -72 -390 -1 -102 1 -212 4
-244 l5 -59 -110 -47 c-131 -57 -194 -91 -235 -130 -33 -31 -37 -47 -17 -74
30 -41 251 -9 353 50 l41 24 -5 -73 c-9 -142 32 -337 101 -472 94 -188 246
-340 441 -441 l80 -42 -3 -56 c-3 -73 23 -161 59 -197 22 -22 38 -29 68 -29
58 0 196 43 325 101 105 47 114 49 149 38 53 -17 106 -4 144 37 31 32 38 34
163 53 204 32 251 59 251 145 0 28 -5 68 -11 89 -10 37 -9 39 41 94 103 113
184 262 226 418 22 85 27 121 27 235 0 163 -17 252 -76 390 l-15 35 87 2 c179
5 281 37 281 88 0 21 -8 30 -42 45 -43 19 -195 40 -287 40 l-50 0 -11 43 c-86
347 -166 500 -323 617 -92 69 -212 131 -302 155 -73 19 -281 27 -385 15z m834
-984 c65 -9 120 -17 121 -18 15 -17 50 -104 71 -175 37 -126 43 -293 16 -423
-32 -157 -101 -299 -204 -422 l-40 -48 -25 31 c-24 28 -31 30 -72 26 -25 -2
-56 -8 -67 -12 -20 -6 -22 -2 -28 49 -7 54 -7 55 33 95 45 45 81 110 103 186
25 85 11 93 -66 40 -46 -31 -116 -61 -116 -49 0 3 -11 75 -25 162 -14 86 -24
168 -23 182 1 14 1 37 0 53 -2 25 -5 27 -49 27 -45 0 -49 2 -68 37 -61 112
-206 138 -299 54 -36 -33 -65 -96 -66 -142 0 -54 42 -130 92 -162 23 -15 51
-27 63 -27 17 0 15 -3 -10 -18 -16 -11 -36 -26 -44 -35 -11 -14 -17 -15 -40
-3 -67 34 -145 25 -192 -20 -17 -17 -43 -65 -65 -121 -26 -66 -44 -99 -62
-111 -33 -21 -120 -20 -181 2 -59 22 -73 9 -46 -41 28 -51 101 -124 158 -158
128 -74 322 -27 425 103 l39 50 31 -24 c64 -50 120 -68 217 -68 60 0 102 6
127 16 l36 16 11 -59 10 -60 -37 -33 c-20 -19 -64 -66 -97 -104 l-60 -70 -46
5 c-58 7 -115 -11 -148 -47 l-26 -27 -175 23 c-143 19 -185 21 -232 12 -51 -9
-61 -8 -110 15 -277 126 -477 387 -529 691 -11 65 -9 279 3 292 3 3 79 37 168
75 290 125 610 221 837 249 100 13 549 3 687 -14z m-544 -218 c132 -67 96
-260 -51 -275 -140 -14 -216 165 -111 260 44 40 102 45 162 15z m170 -128
c-20 -13 -40 -13 -40 0 0 6 12 10 28 10 21 0 24 -2 12 -10z m30 -56 c0 -3 12
-75 26 -160 14 -86 24 -158 21 -160 -12 -12 -60 26 -113 90 -31 37 -69 76 -85
85 -35 20 -36 24 -4 41 24 13 75 80 75 100 0 5 18 10 40 10 22 0 40 -3 40 -6z
m-163 -184 c1 0 28 -32 59 -71 59 -74 104 -109 141 -109 24 0 28 -10 38 -82 7
-45 6 -47 -26 -64 -19 -9 -63 -19 -100 -22 -88 -6 -163 16 -219 65 -39 35 -43
45 -56 113 -18 105 -17 118 13 146 33 30 79 43 118 32 16 -4 31 -8 32 -8z
m-262 -44 c21 -9 36 -23 39 -38 17 -78 27 -170 21 -189 -11 -32 -94 -118 -135
-139 -126 -64 -248 -42 -347 61 l-32 34 85 0 c85 0 86 0 118 36 19 20 43 62
55 95 11 32 29 75 38 94 30 57 89 75 158 46z m625 -103 c0 -29 -93 -154 -104
-142 -2 2 -7 27 -10 54 l-7 50 53 21 c62 25 68 27 68 17z"/>
<path d="M1271 1296 c-16 -19 -11 -56 10 -69 9 -5 28 -7 43 -3 24 6 27 11 24
44 -3 33 -6 37 -34 40 -18 2 -36 -3 -43 -12z"/>
<path d="M1487 1332 c-22 -24 -21 -45 1 -65 24 -22 45 -21 65 1 21 23 22 46 1
66 -21 21 -47 20 -67 -2z"/>
</g>
</svg>
